<svg width="40" height="40" viewBox="0 0 40 40" fill="none" xmlns="http://www.w3.org/2000/svg">

<svg width="40" height="40" viewBox="0 0 40 40" fill="none">
<path class="path-primaryGr" d="M20 40C8.97059 40 0 31.0294 0 20C0 8.97059 8.97059 0 20 0C31.0294 0 40 8.97059 40 20C40 31.0294 31.0294 40 20 40ZM20 2.35294C10.2647 2.35294 2.35294 10.2647 2.35294 20C2.35294 29.7353 10.2647 37.6471 20 37.6471C29.7353 37.6471 37.6471 29.7353 37.6471 20C37.6471 10.2647 29.7353 2.35294 20 2.35294Z"/><!-- fill="url(#paint0_linear)"-->
</svg>

<svg width="13" height="13" viewBox="0 0 13 13" fill="none" x="9.4" y="15.29">
<path class="path-primaryGr" d="M10.9999 12.0589C10.3528 12.0589 9.82339 11.5295 9.82339 10.8824C9.82339 6.35301 6.1175 2.64713 1.58809 2.64713C0.941033 2.64713 0.411621 2.11772 0.411621 1.47066C0.411621 0.823601 0.941033 0.294189 1.58809 0.294189C7.44103 0.294189 12.1763 5.02948 12.1763 10.8824C12.1763 11.5295 11.6469 12.0589 10.9999 12.0589Z"/>
</svg>

<svg width="10" height="7" viewBox="0 0 10 7" fill="none" x="21.47" y="15.29">
<path class="path-secondaryGr" d="M9.58817 1.47066C9.58817 2.11772 9.05876 2.64713 8.4117 2.64713C5.61758 2.64713 3.11758 4.05889 1.64699 6.20595C1.32346 5.38242 0.941108 4.61772 0.47052 3.91184C2.4117 1.67654 5.26464 0.294189 8.4117 0.294189C9.05876 0.294189 9.58817 0.823601 9.58817 1.47066Z"/>
</svg>

<!--<defs>
<linearGradient id="paint0_linear" x1="20" y1="0" x2="20" y2="40" gradientUnits="userSpaceOnUse">
<stop stop-color="#BC9CFF"/>
<stop offset="1" stop-color="#8BA4F9"/>
</linearGradient>
</defs>
<defs>
<linearGradient id="paint1_linear" x1="6.29397" y1="0.294189" x2="6.29397" y2="12.0589" gradientUnits="userSpaceOnUse">
<stop stop-color="#BC9CFF"/>
<stop offset="1" stop-color="#8BA4F9"/>
</linearGradient>
</defs>
<defs>
<linearGradient id="paint2_linear" x1="5.02934" y1="0.294189" x2="5.02934" y2="6.20595" gradientUnits="userSpaceOnUse">
<stop stop-color="#6FCF97"/>
<stop offset="1" stop-color="#66D2EA"/>
</linearGradient>
</defs>-->

</svg>
